<?xml version="1.0" standalone="no"?>
<!DOCTYPE svg PUBLIC "-//W3C//DTD SVG 20010904//EN"
 "http://www.w3.org/TR/2001/REC-SVG-20010904/DTD/svg10.dtd">
<svg version="1.0" xmlns="http://www.w3.org/2000/svg"
 width="563.000000pt" height="375.000000pt" viewBox="0 0 563.000000 375.000000"
 preserveAspectRatio="xMidYMid meet">

<g transform="translate(0.000000,375.000000) scale(0.100000,-0.100000)"
fill="#000000" stroke="none">
<path d="M0 1875 l0 -1875 2815 0 2815 0 0 443 c0 331 -3 446 -12 455 -9 9 -9
15 0 24 9 9 12 338 12 1420 l0 1408 -2815 0 -2815 0 0 -1875z m5149 1781 c16
-19 -4 -59 -26 -54 -26 5 -39 34 -24 52 17 20 35 20 50 2z m-1229 -6 c0 -5 -5
-10 -11 -10 -5 0 -7 5 -4 10 3 6 8 10 11 10 2 0 4 -4 4 -10z m-152 -66 c2 -11
-4 -26 -12 -33 -31 -26 -71 14 -45 45 17 21 53 14 57 -12z m-2788 -484 c0 -5
-2 -10 -4 -10 -3 0 -8 5 -11 10 -3 6 -1 10 4 10 6 0 11 -4 11 -10z m855 -115
c0 -30 -39 -27 -43 3 -3 20 0 23 20 20 15 -2 23 -10 23 -23z m695 15 c0 -5 -5
-10 -11 -10 -5 0 -7 5 -4 10 3 6 8 10 11 10 2 0 4 -4 4 -10z m-310 -30 c0 -5
-2 -10 -4 -10 -3 0 -8 5 -11 10 -3 6 -1 10 4 10 6 0 11 -4 11 -10z m830 -4 c0
-3 -4 -8 -10 -11 -5 -3 -10 -1 -10 4 0 6 5 11 10 11 6 0 10 -2 10 -4z m-84
-21 c46 -14 134 -76 134 -95 0 -5 -20 2 -44 16 -133 74 -392 48 -525 -54 l-36
-27 23 32 c42 59 106 104 187 129 55 18 201 17 261 -1z m724 -9 c0 -8 -4 -17
-9 -21 -12 -7 -24 12 -16 25 9 15 25 12 25 -4z m-669 -66 c75 -28 131 -79 171
-157 82 -155 74 -311 -23 -494 -35 -65 -72 -103 -146 -146 -44 -25 -60 -29
-178 -34 l-130 -7 130 2 c120 2 134 4 183 29 34 18 52 23 52 15 -1 -20 -24
-46 -56 -63 -21 -11 -24 -15 -10 -15 10 0 33 15 52 34 l35 35 52 -14 c41 -10
61 -24 95 -61 63 -69 94 -127 86 -158 -6 -24 -24 -37 -24 -17 0 16 -70 33
-103 27 -18 -4 -41 -8 -52 -10 -37 -5 -65 -17 -65 -28 0 -7 5 -6 15 2 8 6 21
10 30 8 14 -3 14 -6 2 -22 -11 -15 -17 -17 -35 -7 -28 15 -117 14 -181 -3 -36
-9 -64 -11 -85 -5 -17 5 -73 9 -123 9 -67 0 -93 3 -94 13 -3 27 3 63 12 71 4
5 101 10 214 11 199 2 206 2 220 -18 8 -12 15 -17 15 -11 0 23 -27 44 -55 45
-17 0 -112 -1 -213 -3 -195 -4 -202 -5 -202 -55 0 -21 -3 -22 -42 -16 -90 12
-145 9 -167 -11 -12 -11 -22 -17 -24 -15 -1 2 -10 18 -19 36 l-17 32 45 50
c57 64 133 119 173 127 24 5 37 2 54 -13 27 -25 61 -43 79 -43 7 1 -8 12 -34
25 -26 14 -50 34 -54 47 -4 12 -28 41 -53 64 -101 91 -139 177 -150 339 l-8
110 -1 -92 c-2 -75 -5 -93 -17 -93 -16 0 -21 18 -29 106 -5 51 -2 64 13 78 10
9 24 16 30 14 7 -2 22 25 34 62 31 93 120 177 231 217 101 36 277 38 367 3z
m1904 -30 c3 -5 1 -10 -4 -10 -6 0 -11 5 -11 10 0 6 2 10 4 10 3 0 8 -4 11
-10z m-295 -90 c0 -5 -4 -10 -10 -10 -5 0 -10 5 -10 10 0 6 5 10 10 10 6 0 10
-4 10 -10z m-3290 -45 c0 -8 -6 -15 -14 -15 -17 0 -28 14 -19 24 12 12 33 6
33 -9z m-590 -25 c0 -5 -4 -10 -10 -10 -5 0 -10 5 -10 10 0 6 5 10 10 10 6 0
10 -4 10 -10z m4460 0 c0 -5 -4 -10 -10 -10 -5 0 -10 5 -10 10 0 6 5 10 10 10
6 0 10 -4 10 -10z m-1917 -105 c11 -11 14 -31 10 -82 -6 -84 -7 -89 -30 -102
-18 -9 -19 -4 -18 95 0 107 6 121 38 89z m-2825 -112 c-4 -22 -22 -20 -26 1
-2 10 3 16 13 16 10 0 15 -7 13 -17z m4262 -47 c0 -3 -4 -8 -10 -11 -5 -3 -10
-1 -10 4 0 6 5 11 10 11 6 0 10 -2 10 -4z m-1078 -138 c66 -31 140 -95 180
-157 36 -57 37 -75 2 -67 -19 5 -10 -8 43 -58 49 -46 79 -85 107 -140 35 -68
40 -87 44 -163 13 -253 -129 -439 -358 -468 -49 -6 -165 7 -178 19 -2 3 5 20
17 39 11 19 21 41 21 48 0 8 -8 1 -19 -16 -39 -64 -104 -116 -215 -171 -234
-116 -424 -111 -596 14 -34 24 -33 23 8 -19 l42 -45 -62 -35 c-102 -59 -123
-64 -243 -64 -97 0 -116 3 -165 26 -69 33 -141 104 -174 172 -32 67 -33 45 -2
-33 l25 -60 -56 -16 c-77 -23 -203 -16 -263 13 -72 35 -128 97 -146 162 -22
72 -14 156 19 216 25 43 21 48 -13 19 -14 -12 -18 -9 -33 15 -28 47 -42 168
-29 237 27 133 117 256 230 311 45 22 73 28 148 31 70 3 91 7 88 17 -11 26
121 97 213 115 36 7 85 10 117 6 49 -7 57 -11 82 -48 15 -22 43 -53 62 -68 38
-31 36 -44 -5 -55 -36 -9 -84 -45 -155 -118 l-58 -59 -33 20 c-39 22 -142 62
-160 61 -7 0 13 -9 43 -20 129 -46 207 -119 180 -170 -7 -12 -9 -37 -5 -60 6
-36 5 -39 -17 -39 -12 0 -30 -4 -37 -9 -10 -6 -1 -8 26 -4 23 3 54 2 69 -1 24
-6 25 -9 12 -24 -29 -33 -30 -46 -2 -15 19 21 45 35 74 42 25 6 68 17 95 25
39 11 44 15 22 15 -18 1 -26 5 -21 12 4 7 7 21 8 32 1 29 58 40 165 33 80 -5
110 -14 84 -23 -7 -3 -23 -14 -35 -25 -21 -18 -19 -18 15 2 76 44 207 63 285
41 29 -9 33 -7 46 18 16 29 53 51 89 51 30 0 82 -33 103 -65 16 -25 16 -29 1
-61 -20 -41 -38 -50 -75 -35 -15 6 -42 13 -61 15 -22 2 -43 13 -58 30 -25 29
-32 22 -9 -10 13 -17 12 -21 -12 -42 -25 -22 -25 -22 -2 -8 48 31 134 16 195
-32 19 -16 19 -16 3 3 -16 18 -16 20 8 41 13 13 43 30 67 38 23 8 34 15 25 16
-9 0 -28 -4 -42 -10 -29 -10 -35 0 -11 20 17 14 21 35 4 25 -6 -4 -16 1 -23
11 -40 54 71 143 217 174 l42 9 -49 -4 c-52 -5 -147 -44 -179 -73 -18 -16 -20
-16 -31 1 -6 11 -35 50 -64 88 -46 60 -60 71 -112 90 -33 12 -60 25 -60 28 0
18 112 140 146 161 82 48 132 61 239 57 83 -2 110 -7 157 -29z m798 -83 c0 -8
-7 -15 -15 -15 -8 0 -15 7 -15 15 0 8 7 15 15 15 8 0 15 -7 15 -15z m-4230
-145 c0 -5 -4 -10 -10 -10 -5 0 -10 5 -10 10 0 6 5 10 10 10 6 0 10 -4 10 -10z
m1286 -41 c3 -6 1 -16 -5 -22 -9 -9 -14 -8 -21 3 -9 15 -4 30 10 30 5 0 12 -5
16 -11z m3614 7 c0 -3 -4 -8 -10 -11 -5 -3 -10 -1 -10 4 0 6 5 11 10 11 6 0
10 -2 10 -4z m-2577 -211 c65 -66 27 -125 -91 -141 -50 -6 -51 -6 -71 27 -28
46 -26 60 12 96 54 51 109 58 150 18z m63 -7 c12 -19 -20 -29 -33 -11 -7 9
-13 20 -13 24 0 10 39 -1 46 -13z m1594 -18 c0 -5 -4 -10 -10 -10 -5 0 -10 5
-10 10 0 6 5 10 10 10 6 0 10 -4 10 -10z m-3049 -25 c-1 -15 -24 -12 -29 3 -3
9 2 13 12 10 10 -1 17 -7 17 -13z m4324 -145 c0 -22 -29 -18 -33 3 -3 14 1 18
15 15 10 -2 18 -10 18 -18z m-4945 -230 c0 -5 -2 -10 -4 -10 -3 0 -8 5 -11 10
-3 6 -1 10 4 10 6 0 11 -4 11 -10z m3980 -270 c0 -5 -2 -10 -4 -10 -3 0 -8 5
-11 10 -3 6 -1 10 4 10 6 0 11 -4 11 -10z m-2855 -70 c0 -18 -6 -26 -23 -28
-24 -4 -38 18 -28 44 3 9 15 14 28 12 17 -2 23 -10 23 -28z m1055 -24 c0 -3
-4 -8 -10 -11 -5 -3 -10 -1 -10 4 0 6 5 11 10 11 6 0 10 -2 10 -4z m-350 -190
c0 -3 -4 -8 -10 -11 -5 -3 -10 -1 -10 4 0 6 5 11 10 11 6 0 10 -2 10 -4z
m2930 -161 c0 -8 -7 -15 -15 -15 -8 0 -15 7 -15 15 0 8 7 15 15 15 8 0 15 -7
15 -15z m-1820 -5 c0 -5 -2 -10 -4 -10 -3 0 -8 5 -11 10 -3 6 -1 10 4 10 6 0
11 -4 11 -10z m307 -6 c8 -22 -10 -49 -32 -49 -10 0 -22 7 -28 16 -15 24 -1
49 28 49 15 0 28 -7 32 -16z m-327 -114 c0 -5 -4 -10 -10 -10 -5 0 -10 5 -10
10 0 6 5 10 10 10 6 0 10 -4 10 -10z m-2860 -50 c0 -5 -4 -10 -10 -10 -5 0
-10 5 -10 10 0 6 5 10 10 10 6 0 10 -4 10 -10z m3360 -164 c0 -3 -4 -8 -10
-11 -5 -3 -10 -1 -10 4 0 6 5 11 10 11 6 0 10 -2 10 -4z m-2520 -86 c0 -5 -4
-10 -10 -10 -5 0 -10 5 -10 10 0 6 5 10 10 10 6 0 10 -4 10 -10z m3140 -20 c0
-5 -2 -10 -4 -10 -3 0 -8 5 -11 10 -3 6 -1 10 4 10 6 0 11 -4 11 -10z m-1670
-85 c0 -8 -7 -15 -15 -15 -8 0 -15 7 -15 15 0 8 7 15 15 15 8 0 15 -7 15 -15z"/>
<path d="M2706 2839 c-116 -29 -249 -142 -281 -240 -26 -79 -15 -221 23 -304
40 -84 79 -126 158 -166 65 -32 74 -34 191 -37 105 -3 133 0 187 18 87 29 143
80 194 177 91 176 76 334 -44 463 -66 71 -127 92 -274 96 -63 2 -132 -1 -154
-7z m301 -39 c61 -27 113 -76 113 -108 0 -13 -3 -22 -7 -20 -84 43 -135 61
-191 69 -125 19 -247 -12 -328 -82 -50 -43 -64 -43 -64 1 0 59 87 128 195 157
73 19 221 10 282 -17z m-561 -277 c1 -109 21 -203 60 -272 33 -60 24 -63 -14
-4 -41 67 -62 138 -64 219 -1 57 9 154 15 154 1 0 3 -44 3 -97z m89 77 c8 -13
-22 -70 -42 -77 -18 -7 -33 14 -26 36 15 40 54 64 68 41z m685 -84 c0 -81 -19
-154 -60 -236 -30 -60 -69 -112 -70 -93 0 6 5 15 10 18 38 24 100 220 102 324
2 92 18 81 18 -13z m-720 -62 c0 -16 -16 -19 -25 -4 -8 13 4 32 16 25 5 -4 9
-13 9 -21z"/>
<path d="M2616 2069 c6 -10 72 -31 83 -27 5 2 -12 10 -39 19 -27 8 -47 12 -44
8z"/>
<path d="M2968 1993 c7 -3 16 -2 19 1 4 3 -2 6 -13 5 -11 0 -14 -3 -6 -6z"/>
<path d="M3359 2083 c-13 -16 -12 -17 4 -4 16 13 21 21 13 21 -2 0 -10 -8 -17
-17z"/>
<path d="M3314 2048 c-11 -13 -26 -32 -34 -43 -14 -19 -14 -19 3 -6 18 14 62
71 54 71 -2 0 -12 -10 -23 -22z"/>
<path d="M2311 2025 c19 -22 42 -51 51 -65 9 -14 17 -20 17 -13 1 6 -22 36
-50 65 -28 29 -36 35 -18 13z"/>
<path d="M2098 1963 c7 -3 16 -2 19 1 4 3 -2 6 -13 5 -11 0 -14 -3 -6 -6z"/>
</g>
</svg>
